<svg width="12" height="12" viewBox="0 0 12 12" fill="none" xmlns="http://www.w3.org/2000/svg">
<circle cx="6" cy="6" r="6" fill="#FB2E86"/>
<path d="M8.62259 4.57764C8.61936 4.33528 8.57399 4.09533 8.48851 3.86852C8.41438 3.67721 8.30116 3.50347 8.15608 3.35839C8.01101 3.21331 7.83726 3.10009 7.64595 3.02596C7.42206 2.94192 7.18553 2.89647 6.94643 2.89156C6.63859 2.8778 6.54099 2.87396 5.75955 2.87396C4.97811 2.87396 4.87795 2.87396 4.57235 2.89156C4.33336 2.89651 4.09694 2.94195 3.87315 3.02596C3.68181 3.10004 3.50804 3.21324 3.36295 3.35832C3.21787 3.50341 3.10467 3.67718 3.03059 3.86852C2.94638 4.09224 2.90103 4.32872 2.89651 4.56772C2.88275 4.87588 2.87859 4.97348 2.87859 5.75492C2.87859 6.53636 2.87859 6.6362 2.89651 6.94212C2.90131 7.18148 2.94643 7.41764 3.03059 7.64196C3.10479 7.83325 3.21808 8.00695 3.36321 8.15197C3.50834 8.29699 3.68213 8.41015 3.87347 8.4842C4.09665 8.57163 4.33311 8.62032 4.57267 8.6282C4.88083 8.64196 4.97843 8.64612 5.75987 8.64612C6.54131 8.64612 6.64147 8.64612 6.94707 8.6282C7.18616 8.62349 7.4227 8.57815 7.64659 8.49412C7.83785 8.41991 8.01155 8.30666 8.15662 8.16159C8.30168 8.01652 8.41493 7.84282 8.48915 7.65156C8.57331 7.42756 8.61843 7.1914 8.62323 6.95172C8.63699 6.64388 8.64115 6.54628 8.64115 5.76452C8.64051 4.98308 8.64051 4.88388 8.62259 4.57764V4.57764ZM5.75763 7.23268C4.94035 7.23268 4.27827 6.5706 4.27827 5.75332C4.27827 4.93604 4.94035 4.27396 5.75763 4.27396C6.14998 4.27396 6.52626 4.42982 6.80369 4.70726C7.08113 4.98469 7.23699 5.36097 7.23699 5.75332C7.23699 6.14567 7.08113 6.52195 6.80369 6.79939C6.52626 7.07682 6.14998 7.23268 5.75763 7.23268V7.23268ZM7.29587 4.5642C7.10483 4.5642 6.95091 4.40996 6.95091 4.21924C6.95091 4.17396 6.95983 4.12913 6.97716 4.08729C6.99448 4.04546 7.01988 4.00745 7.0519 3.97543C7.08392 3.94341 7.12193 3.91802 7.16376 3.90069C7.20559 3.88336 7.25043 3.87444 7.29571 3.87444C7.34099 3.87444 7.38582 3.88336 7.42766 3.90069C7.46949 3.91802 7.5075 3.94341 7.53952 3.97543C7.57154 4.00745 7.59693 4.04546 7.61426 4.08729C7.63159 4.12913 7.64051 4.17396 7.64051 4.21924C7.64051 4.40996 7.48627 4.5642 7.29587 4.5642Z" fill="white"/>
<path d="M5.75771 6.71416C6.28843 6.71416 6.71867 6.28392 6.71867 5.7532C6.71867 5.22247 6.28843 4.79224 5.75771 4.79224C5.22699 4.79224 4.79675 5.22247 4.79675 5.7532C4.79675 6.28392 5.22699 6.71416 5.75771 6.71416Z" fill="white"/>
</svg>
