<svg width="12" height="12" viewBox="0 0 12 12" fill="none" xmlns="http://www.w3.org/2000/svg">
<circle cx="6" cy="6" r="6" fill="#151875"/>
<g clip-path="url(#clip0_101_696)">
<path d="M9.48591 3.49972C9.21871 3.61812 8.93167 3.69812 8.62991 3.73428C8.94127 3.54797 9.17421 3.25475 9.28527 2.90932C8.99274 3.08307 8.67258 3.20538 8.33871 3.27092C8.11419 3.03119 7.81681 2.8723 7.49273 2.81891C7.16866 2.76552 6.83602 2.82061 6.54647 2.97564C6.25691 3.13067 6.02664 3.37695 5.8914 3.67626C5.75616 3.97557 5.72352 4.31116 5.79855 4.63092C5.20581 4.60116 4.62595 4.44709 4.09661 4.17873C3.56726 3.91036 3.10026 3.53369 2.72591 3.07316C2.59791 3.29396 2.52431 3.54996 2.52431 3.8226C2.52417 4.06804 2.58461 4.30972 2.70027 4.52619C2.81593 4.74267 2.98324 4.92725 3.18735 5.06356C2.95064 5.05603 2.71915 4.99206 2.51215 4.877V4.8962C2.51213 5.24043 2.6312 5.57408 2.84917 5.84052C3.06714 6.10695 3.37057 6.28977 3.70799 6.35796C3.4884 6.41739 3.25818 6.42614 3.03471 6.38356C3.12991 6.67975 3.31535 6.93877 3.56507 7.12433C3.81479 7.3099 4.11628 7.41273 4.42735 7.41844C3.8993 7.83297 3.24715 8.05783 2.57583 8.05684C2.45691 8.05687 2.33809 8.04992 2.21999 8.03604C2.90142 8.47417 3.69466 8.7067 4.50479 8.7058C7.24719 8.7058 8.74639 6.43444 8.74639 4.46452C8.74639 4.40052 8.74479 4.33588 8.74191 4.27188C9.03352 4.06099 9.28524 3.79984 9.48527 3.50068L9.48591 3.49972Z" fill="white"/>
</g>
<defs>
<clipPath id="clip0_101_696">
<rect width="7.68" height="7.68" fill="white" transform="translate(1.91992 1.91998)"/>
</clipPath>
</defs>
</svg>
